<svg width="90" height="104" viewBox="0 0 90 104" fill="none" xmlns="http://www.w3.org/2000/svg">
<path d="M39.7319 21.3201C39.4369 21.3201 39.0763 21.3201 38.7814 21.3201C38.5192 21.3201 38.3225 21.5167 38.3225 21.7789V28.4323C38.3225 28.6945 38.5192 28.8912 38.7814 28.8912C39.0763 28.8912 39.4369 28.8912 39.7319 28.8912C39.9941 28.8912 40.1907 28.6945 40.1907 28.4323V21.7789C40.2235 21.5167 39.9941 21.3201 39.7319 21.3201Z" fill="white"/>
<path d="M49.6301 20.6973C49.499 20.6973 49.3679 20.6973 49.2368 20.6973C48.5485 20.6973 48.5813 21.1233 48.5813 21.1233V29.0878C48.5813 29.35 48.8107 29.5794 49.0729 29.5794C49.3024 29.5794 49.5318 29.5794 49.7612 29.5794C52.1866 29.5139 56.6113 27.4162 56.5457 25.0236C56.4802 22.5327 52.0883 20.73 49.6301 20.6973Z" fill="white"/>
<path d="M47.8602 21.1562C47.8602 20.894 47.6635 20.6646 47.3686 20.6646C46.3853 20.6646 45.402 20.6646 44.4188 20.6646C43.0422 20.6646 41.6656 20.6646 40.2891 20.6646C40.0269 20.6646 39.7974 20.8612 39.7974 21.1234V29.0551C39.7974 29.3173 39.9941 29.5139 40.2563 29.5139C42.6161 29.5139 44.9759 29.5467 47.3358 29.5139C47.598 29.5139 47.7946 29.2845 47.7946 29.0223V21.1562H47.8602Z" fill="white"/>
<path d="M87.8464 49.4085C85.1916 43.345 80.2425 39.8381 73.3597 38.8876C72.2781 38.7237 72.2781 38.4287 72.7697 37.6093C75.6867 32.8897 76.9322 27.7767 76.4078 22.2049C75.3262 10.0124 64.6086 0.0814201 52.3178 0.0158691C44.5828 0.0158691 40.0598 0.0158691 33.2425 0.0158691C32.4559 0.0158691 31.8004 0.671378 31.8004 1.45799V8.89802C31.8004 8.89802 31.8004 10.4057 33.1441 10.3401C39.7976 10.3729 44.9433 10.3401 51.564 10.3729C55.7264 10.4057 59.7251 12.11 62.511 15.2237C66.3785 19.5828 67.2962 24.663 65.0675 30.0054C62.7076 35.61 58.2829 38.6254 52.0884 38.7237C48.0898 38.7892 44.0584 38.7237 40.0598 38.7237C38.3882 38.7237 38.3554 38.7565 38.3554 40.428C38.3554 51.3095 38.3554 62.2237 38.3554 73.1052C38.3554 74.9734 38.3554 74.9734 40.2236 74.9734C50.5479 74.9734 60.8722 75.0061 71.1965 74.9734C76.4405 74.9406 80.9963 73.0068 84.6016 69.0738C89.4852 63.6986 90.7634 56.0947 87.8464 49.4085ZM71.557 64.6163C64.3136 64.7147 57.0702 64.6491 49.8269 64.6491C48.778 64.6491 48.7453 64.1902 48.7453 62.912C48.7453 58.9462 48.6142 54.8165 48.7125 50.5884C48.7453 49.4085 49.1058 49.1791 50.0235 49.1791C53.6944 49.2118 57.398 49.1791 61.0688 49.1791C64.5758 49.1791 68.1156 49.1463 71.6226 49.1791C75.1623 49.2446 78.1449 51.7683 78.8987 55.2098C79.9475 59.9294 76.4405 64.5508 71.557 64.6163Z" fill="white"/>
<path d="M6.95657 88.7393C5.48167 89.0015 4.00677 89.2637 2.53188 89.5914C0.696451 89.9847 -0.0901604 91.1319 0.00816598 93.1639C0.499798 97.1626 4.59673 103.849 9.21807 103.849C11.2829 103.849 13.1184 103.16 14.921 102.276C11.6107 98.0803 8.89032 93.3278 6.95657 88.7393Z" fill="white"/>
<path d="M13.0855 87.3298C12.2334 87.592 11.3484 87.8215 10.4635 88.0509C12.3317 92.3773 14.8226 96.5725 17.9691 100.604C18.7229 100.178 19.4768 99.7517 20.2306 99.2929C17.1825 95.5237 14.7899 91.5251 13.0855 87.3298Z" fill="white"/>
<path d="M34.9796 41.7063C35.0123 36.2001 35.0123 30.6938 35.0123 25.1875C35.0123 17.813 35.0123 10.4385 35.0123 3.06406C35.0123 2.0808 35.209 0.376472 34.2913 0.147044C33.1441 -0.147935 31.6365 -0.147935 31.6365 1.58916C31.6692 4.70284 31.4398 7.8165 31.407 10.9302C31.2432 19.8123 31.0465 28.6945 30.9154 37.5439C30.8171 43.3451 30.8499 49.1792 30.6532 54.9804C30.4566 60.8472 30.5221 66.714 30.0305 72.5481C29.7027 76.2189 28.0967 79.1032 25.2453 81.2336C22.4921 83.2656 19.5751 84.8716 16.527 86.0843C18.133 90.0174 20.3945 93.8194 23.2459 97.4247C26.3924 95.4254 29.5061 93.2622 32.5214 90.7384C34.4552 88.7064 35.0123 84.6422 35.0451 81.6597C35.1107 75.3668 34.914 69.7294 34.9796 63.4365C34.9796 56.2259 34.9468 48.9825 34.9796 41.7063Z" fill="white"/>
</svg>
